# xmcd
#
# Track frame offsets: 
#        150
#        14009
#        33860
#        60058
#        80453
#        105118
#        121647
#        136380
#        151088
#        173911
#        191186
#        210846
#        224504
#        241631
#        261249
#        285696
#        304619
#        333591
#
# Disc length: 4792 seconds
#
# Revision: 0
# Processed by: cddbd v1.5.2PL0 Copyright (c) Steve Scherf et al.
# Submitted via: ExactAudioCopy v1.3
#
DISCID=e712b612
DTITLE=Various Artist - Akella Presents - vol.137 - Electric Blues  C
DTITLE=D1
DYEAR=2018
DGENRE=Blues
TTITLE0=Eric Clapton and Friends - Call Me The Breeze
TTITLE1=Neal Black and Larry Garner - God Today
TTITLE2=Cleveland Fats - You'll Love Again
TTITLE3=Ken Saydak - Mama Please
TTITLE4=Blinddog Smokin' - Pimp Shoes
TTITLE5=Jim Adams - Not Your Back Door Man
TTITLE6=Dennis Jones - Better than Him
TTITLE7=Mike Farris - Jonah and The Whale
TTITLE8=John Nemeth - Three Time A Fool
TTITLE9=Mikey Jr - Low Down
TTITLE10=Guy Forsyth - Calico Girl
TTITLE11=Blues Merchants - Cat And Mouse
TTITLE12=The Beat Daddys - Delta Lady
TTITLE13=Michael Terry - Leavin' Missouri
TTITLE14=Gashouse Dave - Eternity
TTITLE15=Big Boy Bloater - Bear Cat
TTITLE16=Twelve Bar Blues Band - You've Got To Move
TTITLE17=Mike Eldred - Baptist Town
EXTD=
EXTT0=
EXTT1=
EXTT2=
EXTT3=
EXTT4=
EXTT5=
EXTT6=
EXTT7=
EXTT8=
EXTT9=
EXTT10=
EXTT11=
EXTT12=
EXTT13=
EXTT14=
EXTT15=
EXTT16=
EXTT17=
PLAYORDER=
